<?xml version="1.0" encoding="UTF-8" standalone="no"?>
<!DOCTYPE svg PUBLIC "-//W3C//DTD SVG 1.1//EN" "http://www.w3.org/Graphics/SVG/1.1/DTD/svg11.dtd">
<!--Generated by Intaglio, www.PurgatoryDesign.com-->
<svg version="1.1" viewBox="0,0,1152,864" width="1152" height="864" xmlns="http://www.w3.org/2000/svg" xmlns:xlink="http://www.w3.org/1999/xlink" xmlns:intaglio="http://purgatorydesign.com/namespaces/intaglio" intaglio:grid="36,36,4,4,0.5,#9999bf,1,0,0,1" intaglio:guides="0.8,#f0f,0,0"><path fill="#fffffe" stroke="#000100" d="M307.5,86.4 C307.5,78.4471,313.947,72,321.9,72 L509.1,72 C517.053,72,523.5,78.4471,523.5,86.4 L523.5,129.6 C523.5,137.553,517.053,144,509.1,144 L321.9,144 C313.947,144,307.5,137.553,307.5,129.6 Z"/><g><path fill="#fffffe" stroke="#000100" d="M467.5,208.8 C467.5,192.894,480.394,180,496.3,180 L582.7,180 C598.606,180,611.5,192.894,611.5,208.8 L611.5,367.2 C611.5,383.106,598.606,396,582.7,396 L496.3,396 C480.394,396,467.5,383.106,467.5,367.2 Z"/><text fill="#000100" font-family="Helvetica" font-size="18" transform="matrix(1,0,0,1,495.5,205)" xml:space="preserve"><tspan>AWS EC2</tspan></text><path fill="none" stroke="#000100" d="M467.5,216 L611.5,216"/><text fill="#000100" font-family="Helvetica" font-size="18" text-anchor="middle" transform="matrix(1,0,0,1,539.041,237)" xml:space="preserve"><tspan>StarExec</tspan><tspan x="0" y="20">Compute node</tspan><tspan x="0" y="40">container</tspan></text><text fill="#000100" font-family="Helvetica" font-size="18" transform="matrix(1,0,0,1,582.5,254)" xml:space="preserve"/><text fill="#000100" font-family="Helvetica" font-size="18" transform="matrix(1,0,0,1,476.5,305.5)" xml:space="preserve"><tspan>* Control</tspan><tspan x="0" y="20">* BenchExec</tspan><tspan x="0" y="40">* ATP system</tspan><tspan x="0" y="60">* Problem</tspan><tspan x="0" y="80">* Verifier</tspan></text><g><path fill="none" intaglio:arrow-end="1" stroke="#000100" d="M486,126 L535.1,172.47" intaglio:d="M486,126 L542,179"/><path fill="#000100" intaglio:omit="yes" d="M537.487,169.221 L542,179 L531.988,175.031"/></g><text fill="#000100" font-family="Helvetica" font-size="18" text-anchor="middle" transform="matrix(1,0,0,1,563.768,162)" xml:space="preserve"><tspan>EKS Job</tspan></text><path fill="none" stroke="#000100" d="M585,297 L594,297"/><path fill="none" stroke="#000100" d="M585,381 L594,381"/><path fill="none" stroke="#000100" d="M585,341 L594,341"/><path fill="none" stroke="#000100" d="M585,321 L594,321"/></g><path fill="#fffffe" stroke="#000100" d="M127,446.2 C127,438.358,133.447,432,141.4,432 L328.6,432 C336.553,432,343,438.358,343,446.2 L343,488.8 C343,496.642,336.553,503,328.6,503 L141.4,503 C133.447,503,127,496.642,127,488.8 Z"/><g><path fill="#fffffe" stroke="#000100" d="M360.39,447.2 C360.39,439.358,366.837,433,374.79,433 L561.99,433 C569.943,433,576.39,439.358,576.39,447.2 L576.39,489.8 C576.39,497.642,569.943,504,561.99,504 L374.79,504 C366.837,504,360.39,497.642,360.39,489.8 Z"/><text fill="#000100" font-family="Helvetica" font-size="36" transform="matrix(1,0,0,1,387.61,489.5)" xml:space="preserve"><tspan>AWS EFS</tspan></text></g><text fill="#000100" font-family="Helvetica" font-size="36" transform="matrix(1,0,0,1,335.5,113)" xml:space="preserve"><tspan>AWS EKS</tspan></text><path fill="#fffffe" stroke="#000100" d="M216,208.8 C216,192.894,228.894,180,244.8,180 L331.2,180 C347.106,180,360,192.894,360,208.8 L360,367.2 C360,383.106,347.106,396,331.2,396 L244.8,396 C228.894,396,216,383.106,216,367.2 Z"/><text fill="#000100" font-family="Helvetica" font-size="18" transform="matrix(1,0,0,1,244,205)" xml:space="preserve"><tspan>AWS EC2</tspan></text><path fill="none" stroke="#000100" d="M216,216 L360,216"/><text fill="#000100" font-family="Helvetica" font-size="18" text-anchor="middle" transform="matrix(1,0,0,1,286.538,237)" xml:space="preserve"><tspan>StarExec</tspan><tspan x="0" y="20">Head node</tspan><tspan x="0" y="40">container</tspan></text><text fill="#000100" font-family="Helvetica" font-size="18" transform="matrix(1,0,0,1,331,254)" xml:space="preserve"/><text fill="#000100" font-family="Helvetica" font-size="18" transform="matrix(1,0,0,1,225,305.5)" xml:space="preserve"><tspan>* StarExec</tspan><tspan x="0" y="20">* Local backend</tspan><tspan x="0" y="40">* Kubernetes</tspan><tspan x="28" y="60">backend</tspan></text><text fill="#000100" font-family="Helvetica" font-size="18" text-anchor="middle" transform="matrix(1,0,0,1,665.519,202)" xml:space="preserve"><tspan>Compute</tspan><tspan x="0" y="20">nodes.</tspan><tspan x="0" y="40">Multiple</tspan><tspan x="0" y="60">of these.</tspan></text><g><path fill="none" intaglio:arrow-end="1" stroke="#000100" d="M345.5,127.5 L296.493,172.569" intaglio:d="M345.5,127.5 L289.5,179"/><path fill="#000100" intaglio:omit="yes" d="M299.568,175.175 L289.5,179 L294.153,169.287"/></g><text fill="#000100" font-family="Helvetica" font-size="18" text-anchor="middle" transform="matrix(1,0,0,1,249.518,161.5)" xml:space="preserve"><tspan>EKS Service</tspan></text><g><path fill="none" intaglio:arrow-end="1" stroke="#000100" d="M324,360 L395.5,360" intaglio:d="M324,360 L405,360"/><path fill="#000100" intaglio:omit="yes" d="M395,356 L405,360 L395,364"/></g><path fill="none" stroke="#000100" d="M405,450 L405,126"/><path fill="none" stroke="#000100" d="M405,126 L738,126"/><path fill="none" stroke="#000100" d="M594,297 L594,522"/><g><path fill="none" intaglio:arrow-end="1" stroke="#000100" d="M774,441 L531.5,441" intaglio:d="M774,441 L522,441"/><path fill="#000100" intaglio:omit="yes" d="M532,445 L522,441 L532,437"/></g><g><path fill="none" intaglio:arrow-start="15" stroke="#000100" d="M450,450 L450,297"/><path fill="#000100" intaglio:omit="yes" d="M450,453.5 C448.067,453.5,446.5,451.933,446.5,450 C446.5,448.067,448.067,446.5,450,446.5 C451.933,446.5,453.5,448.067,453.5,450 C453.5,451.933,451.933,453.5,450,453.5"/></g><path fill="none" stroke="#000100" d="M423,441 L423,297"/><g><path fill="none" intaglio:arrow-end="1" stroke="#000100" d="M450,297 L467.5,297" intaglio:d="M450,297 L477,297"/><path fill="#000100" intaglio:omit="yes" d="M467,293 L477,297 L467,301"/></g><g><path fill="none" intaglio:arrow-end="1" stroke="#000100" d="M423,297 L333.5,297" intaglio:d="M423,297 L324,297"/><path fill="#000100" intaglio:omit="yes" d="M334,301 L324,297 L334,293"/></g><text fill="#000100" font-family="Helvetica" font-size="18" text-anchor="middle" transform="matrix(1,0,0,1,630.01,433)" xml:space="preserve"><tspan>Results</tspan></text><g><path fill="none" intaglio:arrow-end="1" stroke="#000100" d="M405,450 L440.5,450" intaglio:d="M405,450 L450,450"/><path fill="#000100" intaglio:omit="yes" d="M440,446 L450,450 L440,454"/></g><text fill="#000100" font-family="Helvetica" font-size="18" text-anchor="end" transform="matrix(1,0,0,1,401.032,387)" xml:space="preserve"><tspan>Job</tspan><tspan x="0" y="20">pair</tspan><tspan x="0" y="40">data</tspan></text><text fill="#000100" font-family="Helvetica" font-size="18" text-anchor="end" transform="matrix(1,0,0,1,401.014,216)" xml:space="preserve"><tspan>Job</tspan><tspan x="0" y="20">pair</tspan><tspan x="0" y="40">info</tspan></text><g><path fill="none" intaglio:arrow-start="1" stroke="#000100" d="M215.5,297 L180,297" intaglio:d="M225,297 L180,297"/><path fill="#000100" intaglio:omit="yes" d="M215,293 L225,297 L215,301"/></g><g><path fill="none" intaglio:arrow-end="1" stroke="#000100" d="M180,297 L180,440.5" intaglio:d="M180,297 L180,450"/><path fill="#000100" intaglio:omit="yes" d="M184,440 L180,450 L176,440"/></g><g><path fill="none" intaglio:arrow-end="1" stroke="#000100" d="M198,342 L224.5,342" intaglio:d="M198,342 L234,342"/><path fill="#000100" intaglio:omit="yes" d="M224,338 L234,342 L224,346"/></g><path fill="none" stroke="#000100" d="M198,342 L198,450"/><text fill="#000100" font-family="Helvetica" font-size="18" text-anchor="end" transform="matrix(1,0,0,1,213.035,202)" xml:space="preserve"><tspan>Head</tspan><tspan x="0" y="20">node.</tspan><tspan x="0" y="40">One of</tspan><tspan x="0" y="60">these.</tspan></text><text fill="#000100" font-family="Helvetica" font-size="36" transform="matrix(1,0,0,1,154.22,489.5)" xml:space="preserve"><tspan>AWS RDS</tspan></text><text fill="#000100" font-family="Helvetica" font-size="18" transform="matrix(1,0,0,1,224.5,452.5)" xml:space="preserve"><tspan>MariaDB</tspan></text><path fill="none" stroke="#000100" d="M522,522 L324,522"/><g><path fill="none" intaglio:arrow-start="1" stroke="#000100" d="M324,459.5 L324,522" intaglio:d="M324,450 L324,522"/><path fill="#000100" intaglio:omit="yes" d="M320,460 L324,450 L328,460"/></g><g><path fill="none" intaglio:arrow-start="15" stroke="#000100" d="M522,441 L423,441"/><path fill="#000100" intaglio:omit="yes" d="M525.5,441 C525.5,442.933,523.933,444.5,522,444.5 C520.067,444.5,518.5,442.933,518.5,441 C518.5,439.067,520.067,437.5,522,437.5 C523.933,437.5,525.5,439.067,525.5,441"/></g><path fill="#fffffe" stroke="#000100" d="M720,208.8 C720,192.894,732.894,180,748.8,180 L835.2,180 C851.106,180,864,192.894,864,208.8 L864,367.2 C864,383.106,851.106,396,835.2,396 L748.8,396 C732.894,396,720,383.106,720,367.2 Z"/><text fill="#000100" font-family="Helvetica" font-size="18" transform="matrix(1,0,0,1,747,198)" xml:space="preserve"><tspan>AWS EC2</tspan></text><path fill="none" stroke="#000100" d="M720,216 L864,216"/><text fill="#000100" font-family="Helvetica" font-size="18" text-anchor="middle" transform="matrix(1,0,0,1,788.039,234)" xml:space="preserve"><tspan>StarExec</tspan><tspan x="0" y="20">Compute node</tspan><tspan x="0" y="40">container</tspan></text><text fill="#000100" font-family="Helvetica" font-size="18" transform="matrix(1,0,0,1,828,252)" xml:space="preserve"/><text fill="#000100" font-family="Helvetica" font-size="18" transform="matrix(1,0,0,1,729,297)" xml:space="preserve"><tspan>* Control</tspan><tspan x="0" y="20">* BenchExec</tspan><tspan x="0" y="40">* ATP system</tspan><tspan x="0" y="60">* Problem</tspan><tspan x="0" y="80">* Verifier</tspan></text><g><path fill="none" intaglio:arrow-end="1" stroke="#000100" d="M738,126 L787.1,172.47" intaglio:d="M738,126 L794,179"/><path fill="#000100" intaglio:omit="yes" d="M789.487,169.221 L794,179 L783.988,175.031"/></g><text fill="#000100" font-family="Helvetica" font-size="18" text-anchor="middle" transform="matrix(1,0,0,1,818.019,162)" xml:space="preserve"><tspan>EKS Job</tspan></text><path fill="none" stroke="#000100" d="M837,297 L846,297"/><path fill="none" stroke="#000100" d="M837,378 L846,378"/><path fill="none" stroke="#000100" d="M837,333 L846,333"/><path fill="none" stroke="#000100" d="M837,315 L846,315"/><path fill="none" stroke="#000100" stroke-width="6" stroke-dasharray="5" d="M621,288 L711,288"/><path fill="none" stroke="#000100" d="M846,297 L846,522"/><g><path fill="none" intaglio:arrow-end="1" stroke="#000100" d="M846,441 L783.5,441" intaglio:d="M846,441 L774,441"/><path fill="#000100" intaglio:omit="yes" d="M784,445 L774,441 L784,437"/></g><g><path fill="none" intaglio:arrow-end="1" stroke="#000100" d="M774,522 L531.5,522" intaglio:d="M774,522 L522,522"/><path fill="#000100" intaglio:omit="yes" d="M532,526 L522,522 L532,518"/></g><g><path fill="none" intaglio:arrow-end="1" stroke="#000100" d="M846,522 L783.5,522" intaglio:d="M846,522 L774,522"/><path fill="#000100" intaglio:omit="yes" d="M784,526 L774,522 L784,518"/></g></svg>
